<svg id="b78a14ae-1845-4709-b730-39c1595144cf" data-name="Livello 1" xmlns="http://www.w3.org/2000/svg" width="1024" height="1024" viewBox="0 0 1024 1024">
  <g>
    <path d="M611.9,448.72H578.06v120.6H611.9c37.44,0,64.08-25.2,64.08-60.48S649.34,448.72,611.9,448.72Z"/>
    <path d="M930,350.64H94a56.22,56.22,0,0,0-56.22,56.22V617.14A56.22,56.22,0,0,0,94,673.36H930a56.22,56.22,0,0,0,56.22-56.22V406.86A56.22,56.22,0,0,0,930,350.64ZM375.38,637.36c-47.16,0-82.8-16.56-105.84-41l39.24-46.44a91.9,91.9,0,0,0,62.64,25.2c22.32,0,33.48-8.28,33.48-19.44,0-11.88-8.28-18.36-37.8-18l-29.88.36V479.68h29.52c23,0,33.48-6.12,33.48-17.28,0-12.24-12.6-19.08-32.76-19.08-20.52,0-38.16,9.72-54,24.48L274.94,425C296.54,400.12,327.5,381,375,381c61.2,0,96.48,29.16,96.48,68,0,26.64-17.28,47.88-45.36,56.16,28.08,6.48,50.76,26.28,50.76,56.88C476.9,606,437.3,637.36,375.38,637.36Zm225-4.68H508.22V385.36h92.16c86.4,0,147.6,51.12,147.6,123.48S686.78,632.68,600.38,632.68Z"/>
  </g>
</svg>
