<svg id="Livello_1" data-name="Livello 1" xmlns="http://www.w3.org/2000/svg" viewBox="0 0 880.79 817.18"><path d="M73.29,737.66c2.58-4.39,6.74-4.7,12.77-.87Q286.13,855.64,521.75,855.55q157,0,310.21-59.75l11.48-5.28c5.17-2.34,8.62-3.8,10.76-4.84,8.32-3.37,14.35-1.77,19.36,4.84,4.43,6.44,3.31,12.59-4.43,18-9.34,7-22.09,15.38-36.87,24.46q-68.61,41.76-153.73,64.73a632.4,632.4,0,0,1-165.79,22.86q-124.77,0-236.19-44.51A654.69,654.69,0,0,1,77.2,750.56c-3.72-2.78-5.59-5.7-5.59-8.35a7.71,7.71,0,0,1,1.87-4.83ZM314.22,504.51q0-56.47,27.26-96.5c18.22-26.66,43-46.87,75-60.62,29.11-12.6,64.41-21.54,106.84-26.94q35.22-3.94,70.57-6.58V300.09c0-35-3.88-58.43-11-70.29-11.18-16.25-28.69-24.46-52.92-24.46h-6.61c-17.65,1.77-33,7.31-45.74,17.29-12.91,10.09-21.23,23.59-24.81,41.16-2.28,11.14-7.6,17.44-16,19L344.23,271c-9-2.19-13.63-6.75-13.63-14.51a22.94,22.94,0,0,1,.85-5.7c9-48.34,31.42-84.36,66.83-107.95,35.71-23.14,77-36.61,124.35-39.39h19.93c60.53,0,108.57,16.25,142.69,48.33,5,5.71,9.88,11.28,14.92,18,4.3,6.16,8.18,11.86,10.33,16.84A73.08,73.08,0,0,1,717.66,208c2.15,9.53,3.88,15.83,5,19.18,1,4,2.28,11.27,2.73,23s.71,18.58.71,20.8V469a128.15,128.15,0,0,0,6,38.8C736,519.49,739.88,528,743.76,533l18.78,25.34c3.3,5.11,4.87,9.53,4.87,13.46,0,4.53-2.14,8.5-6.6,11.73-44,39.39-68.26,60.76-72,64.13-6,5.12-13.77,5.71-23.1,1.78a248.77,248.77,0,0,1-19.36-18.59l-11.31-13q-6.15-7.71-11.76-15.83l-10.91-16.25c-29.82,33.24-59,54-88.19,62.39-18.06,5.71-40.15,8.5-67.13,8.5-40.72,0-74.87-12.74-101.38-38.67s-39.6-62.53-39.6-110.27l-1.87-2.79ZM452,488.11c0,21.23,5.18,38.22,15.64,51.12C478.13,552,492.48,558.41,510,558.41a38,38,0,0,0,7.16-.73,41.47,41.47,0,0,1,6.17-.87c22.52-6,39.59-20.64,52.21-44.09a121.1,121.1,0,0,0,13.32-34.14,149.68,149.68,0,0,0,4.88-30c.57-7.31.57-20.21.57-37.65V390.69c-30.83,0-54.49,2.19-70.57,6.75-46.75,13.46-70.4,43.77-70.4,91.1l-1.3-.74ZM788.31,751.58a31.27,31.27,0,0,1,4.88-6.3,127.48,127.48,0,0,1,38.57-18.76A296.78,296.78,0,0,1,891,717.44a46.43,46.43,0,0,1,15.06,1.18c23.82,2.19,38.44,6.3,43,12.32,2.28,3.37,3.3,8.63,3.3,14.65v5.7c0,19-5.17,41.59-15.33,67.37-10.19,25.93-24.37,46.88-42.3,63C892,884,889.59,885,887.44,885a8.42,8.42,0,0,1-3.31-.45c-3.3-1.6-3.88-4.39-2.28-8.94,19.8-47.29,29.54-80.39,29.54-99,0-5.57-1.15-10.1-3.16-12.88-5.32-6.16-20.21-9.67-45-9.67q-13.35,0-31.83,1.77c-13.33,1.77-25.83,3.37-36.71,5.12-3.3,0-5.45-.59-6.6-1.78-1.16-1-1.44-1.77-.86-2.78a6.31,6.31,0,0,1,.86-2.5v-2.19Z" transform="translate(-71.61 -103.41)"/></svg>