<svg id="ae3c9163-caa3-4980-beae-d91abd1be9bf" data-name="Livello 1" xmlns="http://www.w3.org/2000/svg" width="822.28" height="678.13" viewBox="0 0 822.28 678.13">
  <g>
    <path d="M112.28,203.07v-18h53.91v23h-5.28Zm59.2,179.09,48.62,5v18H112.28v-18l48.63-5Zm-33.41-93.23c0-34.51,0-69.35-1-103.85h57.3c-1,34.11-1,68.4-1,104.78v10.3c0,35.68,0,70.52,1,105h-57.3c1-33.83,1-68.67,1-103.85Zm28.61-3.64h39.46c33.28,0,43.45-19.43,43.45-41,0-26.93-14.6-39.92-41.94-39.92H166.19V185.08h55.08c52.71,0,81.9,20.81,81.9,55.58,0,25.57-19.07,51.85-78.42,55l.28-3.4c52.88,1.62,66.17,19,72.08,54.91L306,399l-27.55-17.24,50.22,5.47v18c-15.94,3.7-21.32,4.8-36.69,4.8-28.51,0-45.29-8.26-48.58-34.3l-6.24-38.9C233.87,314.24,225.58,304,205.51,304H166.68Z" transform="translate(-98.13 -185.08)"/>
    <path d="M341.09,203.07v-18H395v23h-5.29Zm64,179.09,48.62,5v18H341.09v-18l48.62-5Zm-38.25-93.23c0-34.51,0-69.35-1-103.85h58.26c-1,33.83-1,68.67-1,103.85v20.44c0,27.4,0,61.31,1,95.81H365.87c1-33.83,1-68.67,1-103.85ZM432.52,321H395V302.2H433c29.6,0,44.23-20.56,44.23-51.18,0-30.8-16.4-46.66-45.57-46.66H395V185.08h37.17c69.87,0,97.62,26.26,97.62,66.18C529.79,289.51,505.21,321,432.52,321Z" transform="translate(-98.13 -185.08)"/>
  </g>
  <path d="M910.41,227.23h-347a10,10,0,0,1,0-20h347a10,10,0,0,1,0,20Z" transform="translate(-98.13 -185.08)"/>
  <path d="M910.41,307.53h-347a10,10,0,0,1,0-20h347a10,10,0,1,1,0,20Z" transform="translate(-98.13 -185.08)"/>
  <path d="M910.41,387.83h-347a10,10,0,0,1,0-20h347a10,10,0,0,1,0,20Z" transform="translate(-98.13 -185.08)"/>
  <path d="M910.41,461.7H108.13a10,10,0,1,1,0-20H910.41a10,10,0,0,1,0,20Z" transform="translate(-98.13 -185.08)"/>
  <path d="M910.41,542H108.13a10,10,0,0,1,0-20H910.41a10,10,0,0,1,0,20Z" transform="translate(-98.13 -185.08)"/>
  <path d="M910.41,622.3H108.13a10,10,0,0,1,0-20H910.41a10,10,0,1,1,0,20Z" transform="translate(-98.13 -185.08)"/>
  <path d="M910.41,702.61H108.13a10,10,0,0,1,0-20H910.41a10,10,0,0,1,0,20Z" transform="translate(-98.13 -185.08)"/>
  <path d="M910.41,782.91H108.13a10,10,0,0,1,0-20H910.41a10,10,0,0,1,0,20Z" transform="translate(-98.13 -185.08)"/>
  <path d="M910.41,863.21H108.13a10,10,0,0,1,0-20H910.41a10,10,0,0,1,0,20Z" transform="translate(-98.13 -185.08)"/>
</svg>
