<svg id="Livello_1" data-name="Livello 1" xmlns="http://www.w3.org/2000/svg" viewBox="0 0 822.28 664.49"><path d="M910.41,227.23h-347a10,10,0,0,1,0-20h347a10,10,0,0,1,0,20Z" transform="translate(-98.13 -198.72)"/><path d="M910.41,307.53h-347a10,10,0,0,1,0-20h347a10,10,0,1,1,0,20Z" transform="translate(-98.13 -198.72)"/><path d="M910.41,387.83h-347a10,10,0,0,1,0-20h347a10,10,0,0,1,0,20Z" transform="translate(-98.13 -198.72)"/><path d="M910.41,461.7H108.13a10,10,0,1,1,0-20H910.41a10,10,0,0,1,0,20Z" transform="translate(-98.13 -198.72)"/><path d="M910.41,542H108.13a10,10,0,0,1,0-20H910.41a10,10,0,0,1,0,20Z" transform="translate(-98.13 -198.72)"/><path d="M910.41,622.3H108.13a10,10,0,0,1,0-20H910.41a10,10,0,1,1,0,20Z" transform="translate(-98.13 -198.72)"/><path d="M910.41,702.61H108.13a10,10,0,0,1,0-20H910.41a10,10,0,0,1,0,20Z" transform="translate(-98.13 -198.72)"/><path d="M910.41,782.91H108.13a10,10,0,0,1,0-20H910.41a10,10,0,0,1,0,20Z" transform="translate(-98.13 -198.72)"/><path d="M910.41,863.21H108.13a10,10,0,0,1,0-20H910.41a10,10,0,0,1,0,20Z" transform="translate(-98.13 -198.72)"/><path d="M203.33,273.82q-5.6,10.11-17.2,16.3t-28.8,6.2h-21.2v50.4h-34.2V206.32h55.4q16.8,0,28.4,5.8a39.92,39.92,0,0,1,17.4,16,46.47,46.47,0,0,1,5.8,23.4A45.22,45.22,0,0,1,203.33,273.82Zm-34-9.3q4.8-4.59,4.8-13t-4.8-13q-4.8-4.59-14.6-4.6h-18.6v35.2h18.6Q164.52,269.12,169.33,264.52Z" transform="translate(-98.13 -198.72)"/><path d="M260.93,198.72v148h-34.2v-148Z" transform="translate(-98.13 -198.72)"/><path d="M285.43,260.52a48.5,48.5,0,0,1,17.7-20,46.27,46.27,0,0,1,25-7,42.93,42.93,0,0,1,20.7,4.8,35.38,35.38,0,0,1,13.7,12.6v-15.8h34.2v111.6h-34.2v-15.8a36.93,36.93,0,0,1-13.9,12.6,42.93,42.93,0,0,1-20.7,4.8,45.32,45.32,0,0,1-24.8-7.1,49,49,0,0,1-17.7-20.2q-6.49-13.09-6.5-30.3T285.43,260.52Zm70,10.2a24,24,0,0,0-34.6-.1q-7.09,7.31-7.1,20.1t7.1,20.3a23.81,23.81,0,0,0,34.6.1q7.1-7.39,7.1-20.2T355.43,270.72Z" transform="translate(-98.13 -198.72)"/><path d="M535.53,235.12l-70,164.6h-36.8l25.6-56.8-45.4-107.8h38.2l25.8,69.8,25.6-69.8Z" transform="translate(-98.13 -198.72)"/></svg>