<svg id="Livello_1" data-name="Livello 1" xmlns="http://www.w3.org/2000/svg" viewBox="0 0 889.24 538.58"><defs><style>.cls-1{fill:none;stroke:#000;stroke-linecap:round;stroke-miterlimit:10;stroke-width:60px;}</style></defs><path class="cls-1" d="M256.29,159.68" transform="translate(-74.77 -277.74)"/><path class="cls-1" d="M255.68,199.56" transform="translate(-74.77 -277.74)"/><path d="M94.77,648.55H241.28a20,20,0,0,1,20,20V796.32a20,20,0,1,1-40,0V688.55H94.77a20,20,0,1,1,0-40Z" transform="translate(-74.77 -277.74)"/><path d="M797.51,648.55H944a20,20,0,0,1,0,40H817.51V796.32a20,20,0,0,1-40,0V668.55A20,20,0,0,1,797.51,648.55Z" transform="translate(-74.77 -277.74)"/><path d="M788.05,277.74a20,20,0,0,1,20,20V413.56H934.56a20,20,0,0,1,0,40H788.05a20,20,0,0,1-20-20V297.74A20,20,0,0,1,788.05,277.74Z" transform="translate(-74.77 -277.74)"/><path d="M241.28,277.74a20,20,0,0,1,20,20V433.56a20,20,0,0,1-20,20H94.77a20,20,0,0,1,0-40H221.28V297.74A20,20,0,0,1,241.28,277.74Z" transform="translate(-74.77 -277.74)"/></svg>