<svg id="b6808a5d-7ff6-42a0-903e-8fdcbfc898ca" data-name="Livello 1" xmlns="http://www.w3.org/2000/svg" width="545" height="307.71" viewBox="0 0 545 307.71">
  <g>
    <circle cx="272.5" cy="153.69" r="62.5" fill-opacity="0.35"/>
    <path d="M500,585.71a72.5,72.5,0,1,1,72.5-72.5A72.58,72.58,0,0,1,500,585.71Zm0-125a52.5,52.5,0,1,0,52.5,52.5A52.56,52.56,0,0,0,500,460.71Z" transform="translate(-227.5 -359.52)"/>
  </g>
  <path d="M339.76,605.72a185.2,185.2,0,0,1,0-185l17.31,10a165.21,165.21,0,0,0,0,165Z" transform="translate(-227.5 -359.52)"/>
  <path d="M660.24,605.72l-17.31-10a165.21,165.21,0,0,0,0-165l17.31-10a185.2,185.2,0,0,1,0,185Z" transform="translate(-227.5 -359.52)"/>
  <path d="M275.17,667.23A272.66,272.66,0,0,1,274,360.85L290.62,372a252.64,252.64,0,0,0,1,283.87Z" transform="translate(-227.5 -359.52)"/>
  <path d="M726,665.58l-16.58-11.2a252.66,252.66,0,0,0-.83-283.57l16.5-11.29A272.66,272.66,0,0,1,726,665.58Z" transform="translate(-227.5 -359.52)"/>
</svg>
