<svg id="Livello_1" data-name="Livello 1" xmlns="http://www.w3.org/2000/svg" viewBox="0 0 930.91 814.24"><path d="M957.45,993.06H66.55a20,20,0,0,1-20-20V751.85a20,20,0,0,1,40,0V953.06h850.9V751.85a20,20,0,0,1,40,0V973.06A20,20,0,0,1,957.45,993.06Z" transform="translate(-46.55 -178.82)"/><path d="M512,778.3a20,20,0,0,1-20-20V198.82a20,20,0,1,1,40,0V758.3A20,20,0,0,1,512,778.3Z" transform="translate(-46.55 -178.82)"/><path d="M320,484.91a20,20,0,0,1,27.61,6.17L512,749.17,676.38,491.08a20,20,0,1,1,33.75,21.49L528.88,797.14a20,20,0,0,1-33.76,0L313.87,512.57A20.07,20.07,0,0,1,320,484.91Z" transform="translate(-46.55 -178.82)"/></svg>