<svg id="a08e6fe3-aa96-4220-9627-d511b4c4bc6d" data-name="Livello 1" xmlns="http://www.w3.org/2000/svg" width="831" height="618.6" viewBox="0 0 831 618.6">
  <g>
    <rect x="10" y="227" width="811" height="381.61" rx="41.6" fill-opacity="0.35" stroke="#000" stroke-miterlimit="10" stroke-width="20"/>
    <line x1="68.6" y1="150.1" x2="762.5" y2="148.6" fill="none" stroke="#000" stroke-linecap="round" stroke-linejoin="round" stroke-width="20"/>
    <line x1="64.5" y1="156.9" x2="766.3" y2="156.9" fill="none" stroke="#000" stroke-linecap="square" stroke-linejoin="round" stroke-width="12"/>
    <line x1="131.3" y1="80.8" x2="699.7" y2="79.3" fill="none" stroke="#000" stroke-linecap="round" stroke-linejoin="round" stroke-width="20"/>
    <line x1="128" y1="87.6" x2="702.8" y2="87.6" fill="none" stroke="#000" stroke-linecap="square" stroke-linejoin="round" stroke-width="12"/>
    <line x1="190" y1="11.5" x2="639.6" y2="10" fill="none" stroke="#000" stroke-linecap="round" stroke-linejoin="round" stroke-width="20"/>
    <line x1="187.4" y1="18.3" x2="642.1" y2="18.3" fill="none" stroke="#000" stroke-linecap="square" stroke-linejoin="round" stroke-width="12"/>
    <g>
      <path d="M337.8,629.8l75-75h-75v150h-50v-200h200v50l-75,75,100,100v75Z" transform="translate(-97.3 -231.2)"/>
      <path d="M512.8,704.8v-200h250l-125,125h-75v75Zm100-125,25-25h-75v25Z" transform="translate(-97.3 -231.2)"/>
    </g>
  </g>
</svg>
