<svg id="f5b713a5-96bb-4b27-85ce-66e921a48edc" data-name="Livello 1" xmlns="http://www.w3.org/2000/svg" width="831.05" height="618.59" viewBox="0 0 831.05 618.59">
  <path d="M876.67,849.77H148.88a51.68,51.68,0,0,1-51.63-51.62V499.79a51.69,51.69,0,0,1,51.63-51.63H876.67a51.69,51.69,0,0,1,51.63,51.63V798.15A51.68,51.68,0,0,1,876.67,849.77ZM148.88,468.16a31.67,31.67,0,0,0-31.63,31.63V798.15a31.66,31.66,0,0,0,31.63,31.62H876.67a31.66,31.66,0,0,0,31.63-31.62V499.79a31.67,31.67,0,0,0-31.63-31.63Z" transform="translate(-97.25 -231.19)"/>
  <path d="M165.81,391.31a10,10,0,0,1,0-20l693.94-1.52h0a10,10,0,0,1,0,20l-693.94,1.52Z" transform="translate(-97.25 -231.19)"/>
  <rect x="58.55" y="150.91" width="713.74" height="12"/>
  <path d="M228.52,322a10,10,0,0,1,0-20l568.41-1.51h0a10,10,0,0,1,0,20L228.54,322Z" transform="translate(-97.25 -231.19)"/>
  <rect x="121.98" y="81.61" width="586.8" height="12"/>
  <path d="M287.24,252.7a10,10,0,0,1,0-20l449.65-1.51h0a10,10,0,0,1,0,20L287.28,252.7Z" transform="translate(-97.25 -231.19)"/>
  <rect x="181.39" y="12.31" width="466.71" height="12"/>
  <g>
    <path d="M337.78,629.81l75-75h-75v150h-50v-200h200v50l-75,75,100,100v75Z" transform="translate(-97.25 -231.19)"/>
    <path d="M512.78,704.81v-200h250l-125,125h-75v75Zm100-125,25-25h-75v25Z" transform="translate(-97.25 -231.19)"/>
  </g>
</svg>
