<svg id="Livello_1" data-name="Livello 1" xmlns="http://www.w3.org/2000/svg" viewBox="0 0 570.83 1006.67"><path d="M609.43,1015.33h-193a20,20,0,0,1-20-20V628.67H271.63a20,20,0,0,1-20-20V415.33a20,20,0,0,1,20-20H396.4v-125A261.48,261.48,0,0,1,657.68,8.67H802.45a20,20,0,0,1,20,20V222a20,20,0,0,1-20,20H657.68a28.32,28.32,0,0,0-28.25,28.33v125h173a20,20,0,0,1,19.41,24.85L773.6,613.51a20,20,0,0,1-19.4,15.16H629.43V995.33A20,20,0,0,1,609.43,1015.33Zm-173-40h153V608.67a20,20,0,0,1,20-20H738.58l38.27-153.34H609.43a20,20,0,0,1-20-20v-145A68.37,68.37,0,0,1,657.68,202H782.45V48.67H657.68A221.46,221.46,0,0,0,436.4,270.33v145a20,20,0,0,1-20,20H291.63V588.67H416.4a20,20,0,0,1,20,20Z" transform="translate(-251.63 -8.67)"/></svg>