<svg id="Livello_1" data-name="Livello 1" xmlns="http://www.w3.org/2000/svg" viewBox="0 0 905.24 541.16"><defs><style>.cls-1{fill:none;stroke:#000;stroke-linecap:round;stroke-miterlimit:10;stroke-width:60px;}</style></defs><path class="cls-1" d="M256.29,159.68" transform="translate(-59.38 -241.42)"/><path d="M225.88,782.58H79.38a20,20,0,0,1-20-20V634.81a20,20,0,0,1,40,0V742.58h126.5a20,20,0,0,1,0,40Z" transform="translate(-59.38 -241.42)"/><path d="M944.62,782.58H798.12a20,20,0,0,1,0-40h126.5V634.81a20,20,0,0,1,40,0V762.58A20,20,0,0,1,944.62,782.58Z" transform="translate(-59.38 -241.42)"/><path d="M944.62,417.24a20,20,0,0,1-20-20V281.42H798.12a20,20,0,1,1,0-40h146.5a20,20,0,0,1,20,20V397.24A20,20,0,0,1,944.62,417.24Z" transform="translate(-59.38 -241.42)"/><path d="M79.38,417.24a20,20,0,0,1-20-20V261.42a20,20,0,0,1,20-20h146.5a20,20,0,0,1,0,40H99.38V397.24A20,20,0,0,1,79.38,417.24Z" transform="translate(-59.38 -241.42)"/></svg>