<svg xmlns="http://www.w3.org/2000/svg" width="948.48" height="322.73" viewBox="0 0 948.48 322.73">
  <g id="e7502302-4440-4177-bf2f-0875fe116e1d" data-name="Livello 2">
    <g id="a3f16657-a982-42c3-bb6a-0c10fcda8286" data-name="Livello 1">
      <g>
        <path d="M595.87,102.05H563V219.3h32.9c36.4,0,62.3-24.5,62.3-58.8S632.27,102.05,595.87,102.05Z"/>
        <path d="M891.56,0H56.92A56.93,56.93,0,0,0,0,56.92V265.8a56.93,56.93,0,0,0,56.92,56.93H891.56a56.92,56.92,0,0,0,56.92-56.93V56.92A56.92,56.92,0,0,0,891.56,0ZM453.07,280.9h-67.9V188.5H297.32v92.4h-67.9V40.45h67.9V128h87.85V40.45h67.9Zm131.6,0h-89.6V40.45h89.6c84,0,143.5,49.7,143.5,120.05S668.67,280.9,584.67,280.9Z"/>
      </g>
    </g>
  </g>
</svg>
