<svg id="bdd86803-3ad1-4ab6-949e-ba4fcd064040" data-name="Livello 1" xmlns="http://www.w3.org/2000/svg" width="1024" height="1024" viewBox="0 0 1024 1024">
  <g>
    <path d="M633.62,452.69h-32.9V569.94h32.9c36.41,0,62.31-24.5,62.31-58.8S670,452.69,633.62,452.69Z"/>
    <path d="M929.32,350.64H94.68a56.91,56.91,0,0,0-56.92,56.92V616.44a56.91,56.91,0,0,0,56.92,56.92H929.32a56.91,56.91,0,0,0,56.92-56.92V407.56A56.91,56.91,0,0,0,929.32,350.64ZM490.83,631.54h-67.9v-92.4H335.08v92.4h-67.9V391.09h67.9v87.5h87.85v-87.5h67.9Zm131.59,0h-89.6V391.09h89.6c84,0,143.51,49.7,143.51,120.05S706.43,631.54,622.42,631.54Z"/>
  </g>
</svg>
