<svg id="a10b95b9-80b4-4a2e-863f-e3676447dd32" data-name="Livello 1" xmlns="http://www.w3.org/2000/svg" width="811.05" height="918.45" viewBox="0 0 811.05 918.45">
  <g>
    <g>
      <path d="M493.83,80.83,135.7,398.13a27.37,27.37,0,0,0-9.22,20.5V925a27.39,27.39,0,0,0,27.39,27.39H870.13A27.39,27.39,0,0,0,897.52,925V418.63a27.37,27.37,0,0,0-9.22-20.5L530.17,80.83A27.4,27.4,0,0,0,493.83,80.83Z" transform="translate(-106.48 -53.95)" opacity="0.25"/>
      <path d="M493.83,80.83,135.7,398.13a27.37,27.37,0,0,0-9.22,20.5V925a27.39,27.39,0,0,0,27.39,27.39H870.13A27.39,27.39,0,0,0,897.52,925V418.63a27.37,27.37,0,0,0-9.22-20.5L530.17,80.83A27.4,27.4,0,0,0,493.83,80.83Z" transform="translate(-106.48 -53.95)" opacity="0.25"/>
    </g>
    <path d="M870.13,972.4H153.87A47.44,47.44,0,0,1,106.48,925V418.63a47.41,47.41,0,0,1,16-35.47L480.57,65.86l13.26,15-13.26-15a47.43,47.43,0,0,1,62.86,0l358.13,317.3a47.41,47.41,0,0,1,16,35.47V925A47.44,47.44,0,0,1,870.13,972.4ZM512,93.94a7.35,7.35,0,0,0-4.9,1.86L149,413.1a7.37,7.37,0,0,0-2.49,5.53V925a7.4,7.4,0,0,0,7.39,7.39H870.13a7.4,7.4,0,0,0,7.39-7.39V418.63A7.37,7.37,0,0,0,875,413.1L516.9,95.8A7.35,7.35,0,0,0,512,93.94Z" transform="translate(-106.48 -53.95)"/>
  </g>
  <path d="M297.8,687.17H513.25a27.39,27.39,0,0,1,27.39,27.39V898.45a0,0,0,0,1,0,0H270.41a0,0,0,0,1,0,0V714.56A27.39,27.39,0,0,1,297.8,687.17Z"/>
</svg>
