<svg id="Livello_1" data-name="Livello 1" xmlns="http://www.w3.org/2000/svg" viewBox="0 0 712.34 696.16"><path d="M512.08,860.08H496.77C311.23,849.7,163.92,703.67,156,522.27c-5.91-192.06,148.66-352.43,345.23-358.19a363.11,363.11,0,0,1,157.56,30.81,51.93,51.93,0,0,1,27.42,29.92,50.1,50.1,0,0,1-3.56,40.36L636.71,348c-12.59,22.73-40.81,32.38-65.16,22.26C511,347,442,361.82,397.07,407.81a146.39,146.39,0,0,0,17.8,220.57,163.6,163.6,0,0,0,122.85,34.79,139.14,139.14,0,0,0,93.65-54.62H528.11c-28.38,0-51.44-22.38-51.64-50.1V465.21c0-27.86,23.12-50.45,51.64-50.45H816.54c28.29.19,51.24,22.46,51.63,50.1v65.41C858.31,715.31,701.73,860.33,512.08,860.08Zm0-626.23c-157.33-.07-284.92,124.49-285,278.2,0,2.83,0,5.65.13,8.48,6.35,145,124.11,261.7,272.41,270C656.08,797.4,788.89,679.6,797,526.79V484.34H547.69v55H736.77l-14.6,45.23c-23.53,78.4-91.71,136.18-174.48,147.86a238.33,238.33,0,0,1-178-46.27c-97.95-75.07-115.06-213.5-38.22-309.2q6-7.44,12.58-14.35c60.83-64.06,153.91-88.28,239.29-62.28l27.42-49.75A287.33,287.33,0,0,0,512.08,233.85Z" transform="translate(-155.83 -163.92)"/></svg>