<svg id="Livello_1" data-name="Livello 1" xmlns="http://www.w3.org/2000/svg" viewBox="0 0 768.28 855.23"><path d="M670.45,84.39c-58,0-116.62,28-155.89,70.91v1.06c-27.91,32.23-58.15,83.12-48.64,141.83-4.53-1.64-4.81-1.15-9.9-3.09-24.48-9.24-54.76-19.54-90.66-19.54-140.79,0-247.62,118.62-247.62,274.46,0,100.89,36.47,195.46,85.11,266.24,24.34,35.46,52,64.64,80.69,86.35s58.86,37,92.85,37,59.43-10.65,78.5-18.52,33.85-14.37,61.9-14.37c25.29,0,38.13,6.41,57.48,14.41S620,939.61,655,939.61c37.85,0,70-17.2,96.18-39.07s48.11-50,66.32-77.07a644.14,644.14,0,0,0,43.12-75.07c5.24-10.65,9.13-19.5,12.14-26.7s4.6-9.25,6.65-17.47L886,677.49,859.49,666.2a189.12,189.12,0,0,1-53.06-35c-22.11-21-40.93-49.6-40.93-93.55-.6-33.67,12.43-66.32,36.51-91.48a172.83,172.83,0,0,1,26.53-23.65,93.77,93.77,0,0,1,8.84-5.13c2.19-1.31,1.77-.89,5.52-3.09l29.82-17.47-19.88-27.76c-57.77-82.59-150.2-93.55-186.81-93.55-17,0-29,5.53-44.22,8.23,8.56-7.44,19.6-12.08,26.53-20.53.15-.13-.14-.92,0-1.05a10,10,0,0,0,1.1-1h1.1c38.47-39.94,58.35-92.44,55.29-146l-2.27-30.82Zm-42,76.08c-6.09,21.71-16,42.4-32,58.55l-2.23,2.07c-13.51,17-34.38,29.57-55.25,37,5.8-21.45,15.92-43.16,29.85-59.61.29-.39.82-.65,1.1-1.05,15.49-16.45,36.89-28.78,58.58-37ZM365.36,341.38c19.73,0,41.45,6.91,64.09,15.4s43.83,19.53,74.07,19.53,52.92-11.05,79.59-19.53,55.15-15.43,82.92-15.43c18.5,0,64.24,10.95,102.8,44.21-6.76,5.66-12.74,9.77-19.92,17.46-35,37.31-54.22,85.17-54.12,134.67,0,62.69,29.39,109.86,60.77,139.8C775,696,787,700.38,802,708.34c-2,4.11-3,7.3-5.56,12.34-9.55,19.27-22.64,43.94-38.66,67.82s-35.52,47.17-54.19,62.73-35.38,22.6-48.64,22.6c-20,0-31.77-5.13-51.93-13.36s-48-19.54-86.24-19.54c-40.22,0-69.93,11.06-90.66,19.54s-31.49,13.36-49.74,13.36c-8.7,0-27.48-6.58-48.64-22.63s-44.36-40.46-65.23-70.92c-41.84-60.89-74-144.54-74-230.26C188.49,420.39,266.27,341.38,365.36,341.38Z" transform="translate(-117.74 -84.39)"/></svg>