<svg id="Livello_1" data-name="Livello 1" xmlns="http://www.w3.org/2000/svg" viewBox="0 0 840 840"><path d="M701.73,941.16h-400a220,220,0,0,1-220-220v-400a220,220,0,0,1,220-220h400a220,220,0,0,1,220,220v400a220,220,0,0,1-220,220Zm-400-800c-99.25,0-180,80.74-180,180v400c0,99.25,80.75,180,180,180h400c99.25,0,180-80.75,180-180v-400c0-99.26-80.75-180-180-180Z" transform="translate(-81.73 -101.16)"/><path d="M503.35,699.44c-87.68,0-164.7-64.34-177.94-153.61A180,180,0,1,1,529.86,697.48,180.78,180.78,0,0,1,503.35,699.44Zm.11-320A140,140,0,0,0,365,540c11.32,76.36,82.65,129.28,159,117.95a140,140,0,0,0,118-159h0A140,140,0,0,0,503.46,379.42Z" transform="translate(-81.73 -101.16)"/><path d="M743.4,329.12h-.79a39.14,39.14,0,1,1,0-78.27h.79a39.14,39.14,0,1,1,0,78.27Z" transform="translate(-81.73 -101.16)"/></svg>