<svg id="Livello_1" data-name="Livello 1" xmlns="http://www.w3.org/2000/svg" viewBox="0 0 828.09 802.28"><path d="M713.37,389.83a215.15,215.15,0,0,0-99.19,24.11c-5.7-14.52-20.1-24.12-36.16-24.11H423.35c-21.36,0-38.67,16.73-38.67,37.38V875.76c0,20.65,17.31,37.38,38.67,37.38H578c21.36,0,38.67-16.73,38.67-37.38V670.17c0-20.64,17.31-37.38,38.67-37.38S694,649.53,694,670.17V875.76c0,20.65,17.31,37.38,38.67,37.38H887.38c21.35,0,38.67-16.73,38.67-37.38V595.41C925.9,481.93,830.76,390,713.37,389.83ZM848.71,838.38H771.37V670.17c0-61.93-51.94-112.14-116-112.14s-116,50.21-116,112.14V838.38H462V464.59h77.34v26.27c0,20.65,17.3,37.39,38.65,37.4a39.18,39.18,0,0,0,30.22-14c46-56.49,130.72-66.21,189.15-21.71,32.61,24.83,51.55,62.81,51.34,102.93ZM307.34,389.83H152.66c-21.36,0-38.67,16.73-38.67,37.38V875.76c0,20.65,17.31,37.38,38.67,37.38H307.34c21.35,0,38.67-16.73,38.67-37.38V427.21C346,406.56,328.69,389.83,307.34,389.83ZM268.67,838.38H191.33V464.59h77.34ZM230.58,111.09C161.66,107,102.39,157.74,98.19,224.36s48.26,123.92,117.18,128q6.49.38,13,.11h1.09c68.93,3.8,128-47.13,131.94-113.76S312.65,115,243.72,111.14A128,128,0,0,0,230.58,111.09Zm-1.12,166.6h-1.09c-25.9,3.05-49.46-14.77-52.63-39.81a44.38,44.38,0,0,1-.34-6.1c0-27.92,21.65-45.93,55.18-45.93,26.13-3.33,50.1,14.45,53.54,39.71a44.65,44.65,0,0,1,.4,6.23c0,27.88-21.65,45.9-55.1,45.9Z" transform="translate(-97.95 -110.86)"/></svg>