<svg id="ef8739f7-5c4c-4381-8ec4-b7f016d8a042" data-name="Livello 1" xmlns="http://www.w3.org/2000/svg" width="948.48" height="322.73" viewBox="0 0 948.48 322.73">
  <path d="M928.33,354.12H95.67A57.91,57.91,0,0,0,37.76,412V618.94a57.91,57.91,0,0,0,57.91,57.91H928.33a57.91,57.91,0,0,0,57.91-57.91V412A57.91,57.91,0,0,0,928.33,354.12ZM327,623.79H159.92V400.52H223V567.57H327Zm91.32,0H355.24V400.52h63.05Zm177.78,0H524.89l-85.8-223.27h71.18l50.37,130.65,50.05-130.65h71.18Zm285.35-167H764.74v25H871V538H764.74v29.58H881.42v56.22H701.69V400.52H881.42Z" transform="translate(-37.76 -354.12)"/>
</svg>
