<svg id="Livello_1" data-name="Livello 1" xmlns="http://www.w3.org/2000/svg" viewBox="0 0 948.48 322.73"><path d="M864,471.61q-16,0-27.56,11.93a40.6,40.6,0,0,0,0,56.81q11.58,12,27.56,12t27.57-12a40.63,40.63,0,0,0,0-56.81Q880,471.61,864,471.61Z" transform="translate(-43.82 -351.99)"/><path d="M512.1,471.61q-16,0-27.57,11.93a40.63,40.63,0,0,0,0,56.81q11.6,12,27.57,12t27.56-12a40.6,40.6,0,0,0,0-56.81Q528.06,471.61,512.1,471.61Z" transform="translate(-43.82 -351.99)"/><path d="M935.22,352H100.9a57.07,57.07,0,0,0-57.08,57.08V617.63a57.07,57.07,0,0,0,57.08,57.08H935.22a57.07,57.07,0,0,0,57.08-57.08V409.07A57.07,57.07,0,0,0,935.22,352ZM235.58,589.29H191.93l-60.3-82.8v82.8H88V434.71h43.65l60.3,82.8v-82.8h43.65Zm172.79-68.63q0,31.51-20.58,51.42T334.8,592q-32.4,0-53-19.91t-20.59-51.42V434.71h43.65v83.7q0,14.85,8.44,24.42a28.93,28.93,0,0,0,43,0q8.43-9.57,8.43-24.42v-83.7h43.65Zm162.9,47.59Q546.3,592,512.1,592t-59.18-23.74q-25-23.73-25-56.36t25-56.25Q477.9,432,512.1,432t59.17,23.63q25,23.63,25,56.25T571.27,568.25Zm141.3,21H663.29l-59.4-154.58h49.28L688,525.16l34.65-90.45H772Zm210.6-21Q898.2,592,864,592t-59.17-23.74q-25-23.73-25-56.36t25-56.25Q829.8,432,864,432t59.18,23.63q25,23.63,25,56.25T923.17,568.25Z" transform="translate(-43.82 -351.99)"/></svg>