<svg id="Livello_1" data-name="Livello 1" xmlns="http://www.w3.org/2000/svg" width="818.43" height="897.59" viewBox="0 0 818.43 897.59">
  <path d="M828.76,960.37" transform="translate(-111.87 -63.21)" fill="none" stroke="#000" stroke-miterlimit="10" stroke-width="12"/>
  <path d="M863.93,877.1" transform="translate(-111.87 -63.21)" fill="none" stroke="#000" stroke-miterlimit="10" stroke-width="18"/>
  <path d="M1024,1021.8" transform="translate(-111.87 -63.21)" fill="none" stroke="#000" stroke-linecap="round" stroke-miterlimit="25" stroke-width="20"/>
  <path d="M159,960.79a47.27,47.27,0,0,1-47.11-47.18V110.39a47.12,47.12,0,0,1,70-41.21L906,470.79a47.12,47.12,0,0,1,0,82.42L181.84,954.82A47.12,47.12,0,0,1,159,960.79Zm12.89-828.53V891.74L856.63,512Zm705,391,.05,0Z" transform="translate(-111.87 -63.21)"/>
</svg>
