<svg id="b562b0f5-8236-4e9e-a0d2-dcbb23334cdf" data-name="Livello 1" xmlns="http://www.w3.org/2000/svg" width="814.5" height="897" viewBox="0 0 814.5 897">
  <path d="M194.1,345.1a17.6,17.6,0,0,1-14.2-27.7A407.8,407.8,0,0,1,284.3,215.5a17.5,17.5,0,0,1,19.6,29,374.4,374.4,0,0,0-95.5,93.2A17.5,17.5,0,0,1,194.1,345.1Z" transform="translate(-104.7 -63.5)"/>
  <path d="M124.4,612A17.5,17.5,0,0,1,107,596.3a411.9,411.9,0,0,1-2.3-43.1,404.6,404.6,0,0,1,14.1-106.3,17.5,17.5,0,1,1,33.8,9.1,372.6,372.6,0,0,0-10.8,136.7,17.5,17.5,0,0,1-15.6,19.2Z" transform="translate(-104.7 -63.5)"/>
  <path d="M231.7,841.6a17.4,17.4,0,0,1-12.6-5.4A405.3,405.3,0,0,1,137.3,713a17.5,17.5,0,1,1,32.1-13.8,371.7,371.7,0,0,0,74.9,112.7,17.6,17.6,0,0,1-.4,24.8A17.9,17.9,0,0,1,231.7,841.6Z" transform="translate(-104.7 -63.5)"/>
  <path d="M284.2,869.5" transform="translate(-104.7 -63.5)" fill="none" stroke="#000" stroke-linecap="round" stroke-miterlimit="10" stroke-width="35"/>
  <path d="M512,960.5a408,408,0,0,1-195.7-50,17.5,17.5,0,0,1,16.8-30.7A373,373,0,0,0,512,925.5,372.1,372.1,0,0,0,775.2,290,371.2,371.2,0,0,0,512,180.9a17.5,17.5,0,0,1,0-35A407.2,407.2,0,0,1,800,265.2,407.2,407.2,0,0,1,512,960.5Z" transform="translate(-104.7 -63.5)"/>
  <g>
    <path d="M393,177.2,489.7,243a16.6,16.6,0,0,0,26-13.8V97.7a16.6,16.6,0,0,0-26-13.8L393,149.7A16.6,16.6,0,0,0,393,177.2Z" transform="translate(-104.7 -63.5)"/>
    <path d="M499.1,263.4a34.4,34.4,0,0,1-19.2-5.9l-96.7-65.8a34.1,34.1,0,0,1,0-56.5l96.7-65.8a34.1,34.1,0,0,1,53.3,28.3V229.2a34.1,34.1,0,0,1-34.1,34.2Zm-95.2-100,94.3,64.2V99.3Zm-1-.7Z" transform="translate(-104.7 -63.5)"/>
  </g>
</svg>
