<svg id="Livello_1" data-name="Livello 1" xmlns="http://www.w3.org/2000/svg" viewBox="0 0 832.5 470.16"><path d="M397,747.08,178.25,528.33v79.61H95.75v-270h270v76.64l-89.61,89.61L397,625ZM182.39,504.19,377,698.79V633.33L247.86,504.19l97.89-97.89V357.94h-230v230h42.5V508.33l-4.14-4.14,4.14-4.14V400.44H286.14Zm-4.14-83.75v59.61l59.61-59.61Z" transform="translate(-95.75 -276.92)"/><path d="M459.5,607.94H377v-270H723.64L547.39,514.19H459.5Zm-62.5-20h42.5V494.19h99.61L675.36,357.94H397ZM516.14,451.69H439.5V400.44H567.39Zm-56.64-20h48.36l11.25-11.25H459.5Z" transform="translate(-95.75 -276.92)"/><path d="M928.25,669,740.75,481.45V607.94h-82.5v-331l187.5,187.5V337.94h82.5ZM720.75,433.17l187.5,187.5V357.94h-42.5V512.7L678.25,325.2V587.94h42.5Z" transform="translate(-95.75 -276.92)"/></svg>