<svg id="Livello_1" data-name="Livello 1" xmlns="http://www.w3.org/2000/svg" viewBox="0 0 867.93 530.13"><path d="M145.79,399.8l-19-34.45h-5.33V399.8H99.25V308.54h37.31q10.78,0,18.39,3.77a26,26,0,0,1,11.38,10.33,28.88,28.88,0,0,1,3.77,14.63A27.21,27.21,0,0,1,165,353.52q-5.13,7.14-15.15,10.14l21.07,36.14Zm-24.31-50.18h13.77q6.12,0,9.17-3c2-2,3.06-4.81,3.06-8.45a10.91,10.91,0,0,0-3.06-8.19q-3.06-3-9.17-3H121.48Z" transform="translate(-99.25 -295.67)"/><path d="M183.81,343.77a31.42,31.42,0,0,1,11.5-13,30,30,0,0,1,16.25-4.55A27.93,27.93,0,0,1,225,329.34a23,23,0,0,1,8.9,8.19V327.26h22.23V399.8H233.92V389.53a24,24,0,0,1-9,8.19,27.93,27.93,0,0,1-13.46,3.12,29.5,29.5,0,0,1-16.12-4.62,31.79,31.79,0,0,1-11.5-13.13,47.8,47.8,0,0,1,0-39.32Zm45.5,6.63a15.63,15.63,0,0,0-22.49-.07q-4.62,4.76-4.62,13.07t4.62,13.19a14.88,14.88,0,0,0,11.24,4.88,15,15,0,0,0,11.25-4.81q4.6-4.82,4.61-13.13T229.31,350.4Z" transform="translate(-99.25 -295.67)"/><path d="M272.08,343.77a31.42,31.42,0,0,1,11.5-13,30,30,0,0,1,16.25-4.55,28.49,28.49,0,0,1,13.07,3,23.76,23.76,0,0,1,9.29,8.06V303.6h22.23v96.2H322.19V389.4a22.72,22.72,0,0,1-8.9,8.32,28,28,0,0,1-13.46,3.12,29.71,29.71,0,0,1-16.25-4.62,31.79,31.79,0,0,1-11.5-13.13,47.8,47.8,0,0,1,0-39.32Zm45.5,6.63a15.63,15.63,0,0,0-22.49-.07q-4.62,4.76-4.62,13.07t4.62,13.19a14.88,14.88,0,0,0,11.24,4.88,15,15,0,0,0,11.25-4.81q4.6-4.82,4.61-13.13T317.58,350.4Z" transform="translate(-99.25 -295.67)"/><path d="M362.17,316.27a11.15,11.15,0,0,1-3.71-8.51,11.32,11.32,0,0,1,3.71-8.65,13.49,13.49,0,0,1,9.55-3.44,13.34,13.34,0,0,1,9.43,3.44,11.31,11.31,0,0,1,3.7,8.65,11.14,11.14,0,0,1-3.7,8.51,13.3,13.3,0,0,1-9.43,3.45A13.45,13.45,0,0,1,362.17,316.27Zm20.6,11V399.8H360.54V327.26Z" transform="translate(-99.25 -295.67)"/><path d="M412.73,396.29a33.4,33.4,0,0,1-13.38-13,42.1,42.1,0,0,1,.06-39.46,33.51,33.51,0,0,1,13.52-13.06,43,43,0,0,1,38.48,0,33.51,33.51,0,0,1,13.52,13.06,38.58,38.58,0,0,1,4.94,19.7,38.17,38.17,0,0,1-5,19.69,33.88,33.88,0,0,1-13.66,13.07,40.81,40.81,0,0,1-19.3,4.55A40.1,40.1,0,0,1,412.73,396.29Zm30-19.37q4.47-4.68,4.48-13.39t-4.35-13.39a14.79,14.79,0,0,0-21.52-.07q-4.29,4.62-4.29,13.46t4.22,13.39a13.68,13.68,0,0,0,10.6,4.68A14.5,14.5,0,0,0,442.77,376.92Z" transform="translate(-99.25 -295.67)"/><path d="M547.61,352.41A26.77,26.77,0,0,1,536.43,363q-7.54,4-18.72,4H503.93V399.8H481.7V308.54h36q10.92,0,18.46,3.77a25.91,25.91,0,0,1,11.31,10.4,30.26,30.26,0,0,1,3.77,15.21A29.33,29.33,0,0,1,547.61,352.41Zm-22.1-6c2.08-2,3.12-4.81,3.12-8.45s-1-6.46-3.12-8.45-5.25-3-9.49-3H503.93v22.88H516Q522.38,349.36,525.51,346.37Z" transform="translate(-99.25 -295.67)"/><path d="M562.62,343.77a31.44,31.44,0,0,1,11.51-13,30,30,0,0,1,16.25-4.55,27.89,27.89,0,0,1,13.45,3.12,23,23,0,0,1,8.91,8.19V327.26H635V399.8H612.74V389.53a24,24,0,0,1-9,8.19,27.89,27.89,0,0,1-13.45,3.12,29.45,29.45,0,0,1-16.12-4.62,31.82,31.82,0,0,1-11.51-13.13,47.91,47.91,0,0,1,0-39.32Zm45.5,6.63a15,15,0,0,0-11.24-4.81,15.12,15.12,0,0,0-11.25,4.74Q581,355.09,581,363.4t4.61,13.19a15.47,15.47,0,0,0,22.49.07q4.62-4.82,4.62-13.13T608.12,350.4Z" transform="translate(-99.25 -295.67)"/><path d="M715.63,334.73q7.61,8.26,7.61,22.69V399.8h-22.1V360.41q0-7.29-3.77-11.31a13.23,13.23,0,0,0-10.14-4q-6.37,0-10.14,4t-3.77,11.31V399.8H651.09V327.26h22.23v9.62a23.42,23.42,0,0,1,9.1-7.61,29,29,0,0,1,12.87-2.79Q708,326.48,715.63,334.73Z" transform="translate(-99.25 -295.67)"/><path d="M806.7,368.86H756.39q.51,6.75,4.35,10.33a13.29,13.29,0,0,0,9.43,3.58q8.31,0,11.57-7H805.4a32.7,32.7,0,0,1-18.46,21.84,38.33,38.33,0,0,1-16,3.25,38.92,38.92,0,0,1-19-4.55,32.4,32.4,0,0,1-13-13,44.35,44.35,0,0,1-.07-39.52,31.9,31.9,0,0,1,12.94-13,42.13,42.13,0,0,1,37.83-.13,31.7,31.7,0,0,1,12.8,12.61,38.24,38.24,0,0,1,4.62,19.11A56.84,56.84,0,0,1,806.7,368.86Zm-22.36-12.35a11.42,11.42,0,0,0-3.9-9.1,14.32,14.32,0,0,0-9.75-3.38,14.08,14.08,0,0,0-9.43,3.25,14.36,14.36,0,0,0-4.74,9.23Z" transform="translate(-99.25 -295.67)"/><path d="M859.22,381V399.8H847.91q-12.09,0-18.85-5.92t-6.76-19.3V345.72h-8.84V327.26h8.84V309.58h22.23v17.68h14.56v18.46H844.53v29.12q0,3.24,1.56,4.68t5.2,1.43Z" transform="translate(-99.25 -295.67)"/><path d="M912,381V399.8H900.68q-12.09,0-18.85-5.92t-6.76-19.3V345.72h-8.84V327.26h8.84V309.58H897.3v17.68h14.56v18.46H897.3v29.12q0,3.24,1.56,4.68c1,1,2.78,1.43,5.2,1.43Z" transform="translate(-99.25 -295.67)"/><path d="M926,316.27a11.15,11.15,0,0,1-3.71-8.51,11.32,11.32,0,0,1,3.71-8.65,13.49,13.49,0,0,1,9.55-3.44,13.34,13.34,0,0,1,9.43,3.44,11.31,11.31,0,0,1,3.7,8.65,11.14,11.14,0,0,1-3.7,8.51,13.3,13.3,0,0,1-9.43,3.45A13.45,13.45,0,0,1,926,316.27Zm20.6,11V399.8H924.34V327.26Z" transform="translate(-99.25 -295.67)"/><path d="M302.78,574q-11.2,20.19-34.4,32.6T210.78,619h-42.4V719.8H100V439h110.8q33.6,0,56.8,11.6t34.8,32Q314,503,314,529.4A90.49,90.49,0,0,1,302.78,574Zm-68-18.6q9.6-9.21,9.6-26t-9.6-26q-9.6-9.21-29.2-9.2h-37.2v70.4h37.2Q225.17,564.6,234.78,555.4Z" transform="translate(-99.25 -295.67)"/><path d="M418,423.8v296h-68.4v-296Z" transform="translate(-99.25 -295.67)"/><path d="M467,547.4q13-26,35.4-40t50-14q23.6,0,41.4,9.6t27.4,25.2V496.6h68.4V719.8h-68.4V688.2q-10,15.6-27.8,25.2T552,723a90.79,90.79,0,0,1-49.6-14.2Q480,694.6,467,668.4t-13-60.6Q454,573.39,467,547.4Zm140,20.4a48.07,48.07,0,0,0-69.2-.2q-14.21,14.6-14.2,40.2t14.2,40.6q14.19,15,34.6,15A46.17,46.17,0,0,0,607,648.6q14.19-14.8,14.2-40.4T607,567.8Z" transform="translate(-99.25 -295.67)"/><path d="M967.17,496.6l-140,329.2h-73.6l51.2-113.6L714,496.6h76.4L842,636.2l51.2-139.6Z" transform="translate(-99.25 -295.67)"/></svg>