<svg id="Livello_1" data-name="Livello 1" xmlns="http://www.w3.org/2000/svg" viewBox="0 0 929.63 376.88"><path d="M97.44,524.56l75.37-75.37H97.44V599.94H47.19v-201h201v50.25l-75.38,75.37,100.5,100.5v75.38Z" transform="translate(-47.19 -323.56)"/><path d="M273.31,599.94v-201H524.56L398.94,524.56H323.56v75.38Zm100.5-125.63,25.13-25.12H323.56v25.12Z" transform="translate(-47.19 -323.56)"/><path d="M650.19,449.19H562.25l50.25-50.25h37.69V373.81l50.25-50.25v75.38h87.94l-50.26,50.25H700.44V625.06l-50.25,50.25Z" transform="translate(-47.19 -323.56)"/><path d="M775.81,398.94h50.25V549.69L976.81,398.94v75.37l-201,201Z" transform="translate(-47.19 -323.56)"/></svg>