<svg id="Livello_1" data-name="Livello 1" xmlns="http://www.w3.org/2000/svg" width="731.56" height="968.65" viewBox="0 0 731.56 968.65">
  <path d="M828.76,960.37" transform="translate(-162.37 -21.72)" fill="none" stroke="#000" stroke-miterlimit="10" stroke-width="12"/>
  <path d="M863.93,877.1" transform="translate(-162.37 -21.72)" fill="none" stroke="#000" stroke-miterlimit="10" stroke-width="18"/>
  <path d="M1024,1021.8" transform="translate(-162.37 -21.72)" fill="none" stroke="#000" stroke-linecap="round" stroke-miterlimit="25" stroke-width="20"/>
  <path d="M756.34,990.37H300c-75.87,0-137.59-61.72-137.59-137.59V396.4c0-75.86,61.72-137.59,137.59-137.59h49.72a30,30,0,0,1,0,60H300a77.68,77.68,0,0,0-77.59,77.59V852.78A77.68,77.68,0,0,0,300,930.37H756.34a77.68,77.68,0,0,0,77.59-77.59V396.4a77.68,77.68,0,0,0-77.59-77.59H704.75a30,30,0,0,1,0-60h51.59c75.87,0,137.59,61.73,137.59,137.59V852.78C893.93,928.65,832.21,990.37,756.34,990.37Z" transform="translate(-162.37 -21.72)"/>
  <g>
    <path d="M524.57,674.22h-.12a12.49,12.49,0,0,1-12.38-12.62l5.85-609.94a12.5,12.5,0,0,1,12.49-12.38h.13A12.51,12.51,0,0,1,542.92,51.9l-5.85,609.94A12.5,12.5,0,0,1,524.57,674.22Z" transform="translate(-162.37 -21.72)"/>
    <path d="M648.77,223.79a12.5,12.5,0,0,1-17.23-4L530.36,57.49,426.08,217.8a12.5,12.5,0,1,1-21-13.63l115-176.76a12.5,12.5,0,0,1,21.09.2L652.77,206.55a12.55,12.55,0,0,1-4,17.24Z" transform="translate(-162.37 -21.72)"/>
  </g>
</svg>
