<svg id="Livello_1" data-name="Livello 1" xmlns="http://www.w3.org/2000/svg" viewBox="0 0 962.16 746.4"><path d="M355,885.2c-106.75,0-214.89-27-313.33-78.39a20,20,0,0,1,10-37.72,497,497,0,0,0,147.5-16.6,485,485,0,0,0,101.69-39.94c-99.42-49.12-166.53-117.66-199.74-204.12-24.83-64.67-30-140.19-15-218.39,11.27-58.79,29.81-98.37,30.6-100a20,20,0,0,1,34.09-3.42c40.26,53.84,94.65,98,157.31,127.57A452.08,452.08,0,0,0,492,357V337.68c-.78-58.06,25.41-113.12,71.88-151.08,41.79-34.12,95.14-50.93,150.25-47.33,50.82,3.33,97.62,23.66,133.15,57.58A448.37,448.37,0,0,0,962,142.53a20,20,0,0,1,30.41,21.69c-14.3,55.13-43.61,105.58-85,146.55a188.09,188.09,0,0,1,1.84,25.51c0,104-23.34,198.35-69.38,280.45a502.87,502.87,0,0,1-79.17,105.75A517.73,517.73,0,0,1,659,802.94c-86.25,52.28-188.33,80.7-295.22,82.19Q359.4,885.21,355,885.2ZM136.71,805.34c73.46,27.23,150.49,40.85,226.52,39.8,99.77-1.39,194.88-27.81,275-76.4A477.35,477.35,0,0,0,732.1,694.5,463.1,463.1,0,0,0,805,597.17c42.64-76,64.26-163.8,64.26-260.82a146.17,146.17,0,0,0-3-28.68,20,20,0,0,1,6-18.66,284.45,284.45,0,0,0,63-84.76,492.73,492.73,0,0,1-88.41,34.43A20,20,0,0,1,826.79,233c-60.91-65.77-167.5-72.7-237.6-15.44-37,30.23-57.85,73.84-57.19,119.67V376.9a20,20,0,0,1-19.51,20q-6,.14-11.93.14A492.48,492.48,0,0,1,291,350.32,465.08,465.08,0,0,1,141,237.94a462.26,462.26,0,0,0-15.87,60.88c-9.29,49.19-14.5,123.05,13.46,195.59,33,85.7,104.84,152.14,213.45,197.48a20,20,0,0,1,3,35.32,522.14,522.14,0,0,1-145.55,63.91A533.88,533.88,0,0,1,136.71,805.34Z" transform="translate(-30.92 -138.8)"/></svg>