<svg id="Livello_1" data-name="Livello 1" xmlns="http://www.w3.org/2000/svg" width="1010" height="1010" viewBox="0 0 1010 1010">
  <path d="M512,1020.46A505.12,505.12,0,0,1,315.42,50.16a505.12,505.12,0,0,1,393.16,930.6A501.74,501.74,0,0,1,512,1020.46Zm0-950a445.13,445.13,0,0,0-173.21,855A445.12,445.12,0,0,0,685.21,105.42,442.17,442.17,0,0,0,512,70.46Z" transform="translate(-7 -10.46)"/>
  <path d="M828.76,963.83" transform="translate(-7 -10.46)" fill="none" stroke="#000" stroke-miterlimit="10" stroke-width="60"/>
  <path d="M863.93,880.57" transform="translate(-7 -10.46)" fill="none" stroke="#000" stroke-miterlimit="10" stroke-width="60"/>
  <path d="M198.21,852.42l-57.8-16.09c30.35-109.05,79.79-202,143-268.82,67.18-71,146.24-108.58,228.64-108.58s161.46,37.54,228.64,108.58c63.18,66.81,112.62,159.76,143,268.81l-57.8,16.09c-27.74-99.67-72.27-183.93-128.77-243.68-55.56-58.75-119.54-89.8-185-89.8S382.54,550,327,608.74C270.48,668.48,226,752.75,198.21,852.42Z" transform="translate(-7 -10.46)"/>
  <path d="M512,518.93c-51.73,0-100.46-19-137.22-53.41C337.49,430.57,317,384,317,334.26S337.49,238,374.78,203c36.76-34.44,85.49-53.41,137.22-53.41s100.46,19,137.22,53.41C686.51,238,707,284.56,707,334.26s-20.53,96.31-57.82,131.26C612.46,500,563.73,518.93,512,518.93Zm0-309.34c-74.46,0-135,55.93-135,124.67s60.58,124.67,135,124.67S647,403,647,334.26,586.46,209.59,512,209.59Z" transform="translate(-7 -10.46)"/>
</svg>
