<svg id="Livello_1" data-name="Livello 1" xmlns="http://www.w3.org/2000/svg" viewBox="0 0 899.19 848.48"><path d="M961.59,512C961.59,278.24,759.73,87.76,512,87.76,263.82,87.76,62.41,278.24,62.41,512c0,234.18,201.41,424.24,449.59,424.24C759.73,936.24,961.59,746.18,961.59,512ZM412.19,739.82,258.88,351.64c24.73-.85,52.6-3.4,52.6-3.4,22.48-2.54,19.78-47.94-2.7-47.09,0,0-65.19,4.67-106.55,4.67-8.09,0-16.64,0-26.08-.43,74-106.95,200.48-171.17,335.85-170.54,104.76,0,200.07,36.91,272,99.27-30.57-4.67-74.18,16.55-74.18,67,0,31.4,20.23,57.7,40.46,89.09C766,416.12,775,447.94,775,494.61c0,63.21-62.94,212.12-62.94,212.12L575.84,351.64c24.28-.85,36.87-7.22,36.87-7.22,22.48-2.12,19.78-53-2.7-51.75,0,0-64.74,5.09-107,5.09-39.12,0-104.76-5.09-104.76-5.09-22.48-1.28-25.17,50.91-2.69,51.75l41.36,3.4,56.65,144.66ZM845.15,512c10.79-27.15,33.27-79.33,19.33-180.3,31.47,54.72,47.21,115,47.21,180.3,0,139.58-77.78,264.73-197.82,330.06C757.48,732.18,801.09,621.45,845.15,512ZM336.66,855.21C202.68,794.12,112.31,661.76,112.31,512c0-55.15,10.34-105.21,32.37-152.3Q240.44,607.25,336.66,855.21ZM517.84,573.94l116,296.12A399.12,399.12,0,0,1,512,889.15c-35.52,0-70.59-4.67-103-14C445.46,774.18,481.88,674.06,517.84,573.94Z" transform="translate(-62.41 -87.76)"/></svg>